<?xml version="1.0" standalone="no"?>
<!DOCTYPE svg PUBLIC "-//W3C//DTD SVG 20010904//EN"
 "http://www.w3.org/TR/2001/REC-SVG-20010904/DTD/svg10.dtd">
<svg version="1.0" xmlns="http://www.w3.org/2000/svg"
 width="1024.000000pt" height="1024.000000pt" viewBox="0 0 1024.000000 1024.000000"
 preserveAspectRatio="xMidYMid meet">

<g transform="translate(0.000000,1024.000000) scale(0.100000,-0.100000)"
fill="#000000" stroke="none">
<path d="M5103 8207 c-175 -189 -273 -304 -397 -467 -81 -107 -270 -374 -310
-439 -4 -6 3 -15 17 -20 73 -28 147 -137 147 -217 0 -57 -35 -187 -70 -263
-128 -274 -410 -452 -797 -507 -206 -29 -491 -6 -717 56 -79 22 -116 25 -116
9 0 -21 390 -405 555 -548 206 -177 273 -230 389 -309 l89 -60 31 46 c63 94
168 136 288 115 188 -32 446 -203 589 -392 69 -91 154 -267 184 -379 56 -216
60 -504 9 -779 -15 -84 -25 -156 -21 -160 23 -22 418 423 634 715 93 125 253
361 252 371 0 3 -23 17 -52 31 -139 68 -154 258 -39 484 79 153 241 301 429
391 173 83 329 115 563 115 175 0 308 -18 498 -66 79 -20 146 -34 149 -31 9 9
-9 32 -145 181 -239 260 -501 490 -767 672 -116 79 -128 85 -138 69 -24 -44
-91 -104 -138 -124 -176 -76 -488 51 -714 290 -161 173 -256 384 -287 639 -18
155 -2 450 38 688 3 22 1 32 -8 32 -7 0 -72 -64 -145 -143z m160 -1727 c76
-29 164 -110 202 -187 36 -74 45 -183 21 -265 -30 -105 -133 -210 -249 -252
-193 -72 -419 54 -473 263 -31 121 9 255 104 350 112 111 253 144 395 91z"/>
<path d="M1930 3340 c-71 -15 -146 -57 -189 -106 -55 -63 -76 -128 -76 -239 0
-111 22 -162 100 -233 51 -47 72 -58 290 -150 86 -37 125 -90 125 -173 0 -44
-4 -55 -33 -84 -44 -44 -108 -55 -173 -30 -54 20 -81 59 -90 128 l-7 47 -113
0 c-130 0 -122 7 -103 -96 30 -165 141 -270 309 -294 182 -26 350 53 421 195
21 43 24 64 24 155 0 89 -3 112 -23 152 -43 88 -137 157 -292 215 -133 50
-200 112 -200 187 0 75 50 126 125 126 81 0 139 -48 151 -126 l6 -44 109 0
c124 0 118 -5 98 92 -15 73 -65 163 -113 204 -76 66 -229 98 -346 74z"/>
<path d="M2570 2725 l0 -595 115 0 115 0 0 245 0 245 158 0 158 0 -1 -245 -1
-245 118 0 118 0 0 595 0 595 -118 0 -117 0 0 -242 0 -243 -155 0 -155 0 -3
243 -2 242 -115 0 -115 0 0 -595z"/>
<path d="M3540 2875 c0 -467 3 -512 45 -596 59 -116 172 -170 355 -170 189 -1
291 56 359 201 l26 55 5 478 5 477 -117 0 -118 0 0 -448 c0 -414 -1 -450 -18
-482 -52 -99 -226 -105 -285 -11 -22 36 -22 41 -25 489 l-3 452 -114 0 -115 0
0 -445z"/>
<path d="M4518 2725 l-3 -595 120 0 120 0 0 217 0 218 55 3 55 2 105 -220 105
-220 136 0 135 0 -118 233 c-65 127 -119 237 -120 244 -2 7 22 27 52 45 99 60
147 176 137 334 -10 173 -89 269 -256 316 -55 15 -103 18 -293 18 l-228 0 -2
-595z m425 384 c21 -5 53 -23 71 -40 69 -60 69 -188 0 -248 -43 -38 -90 -51
-186 -51 l-78 0 0 175 0 175 78 0 c42 0 94 -5 115 -11z"/>
<path d="M5490 2725 l0 -595 115 0 115 0 0 595 0 595 -115 0 -115 0 0 -595z"/>
<path d="M5930 2725 l0 -595 120 0 120 0 0 183 0 182 52 63 c35 43 54 59 58
50 4 -7 54 -118 110 -245 l103 -233 147 0 147 0 -50 98 c-27 53 -106 204 -174
336 -109 208 -124 242 -114 262 5 13 75 129 155 259 l144 235 -128 0 -129 0
-158 -255 c-87 -140 -160 -255 -163 -255 -3 0 -4 115 -2 255 l3 255 -121 0
-120 0 0 -595z"/>
<path d="M6910 2725 l0 -595 320 0 320 0 0 105 0 105 -205 0 -205 0 0 145 0
145 180 0 180 0 0 103 0 103 -180 -1 -180 -1 0 133 0 133 200 0 200 0 0 110 0
110 -315 0 -315 0 0 -595z"/>
<path d="M7710 2725 l0 -595 110 0 110 0 2 393 c2 247 6 385 12 372 5 -11 80
-186 167 -390 l157 -370 141 -3 141 -3 0 596 0 595 -115 0 -115 0 0 -402 c-1
-399 -1 -403 -19 -358 -10 25 -81 190 -159 367 -77 177 -146 337 -153 357
l-13 36 -133 0 -133 0 0 -595z"/>
</g>
</svg>
